<?xml version="1.0" standalone="no"?>
<!DOCTYPE svg PUBLIC "-//W3C//DTD SVG 20010904//EN"
 "http://www.w3.org/TR/2001/REC-SVG-20010904/DTD/svg10.dtd">
<svg version="1.0" xmlns="http://www.w3.org/2000/svg"
 width="512.000000pt" height="512.000000pt" viewBox="0 0 512.000000 512.000000"
 preserveAspectRatio="xMidYMid meet">
<metadata>
Created by potrace 1.11, written by Peter Selinger 2001-2013
</metadata>
<g transform="translate(0.000000,512.000000) scale(0.100000,-0.100000)"
fill="#000000" stroke="none">
<path d="M0 2560 l0 -2560 2560 0 2560 0 0 2560 0 2560 -2560 0 -2560 0 0
-2560z m2154 408 c241 -629 441 -1146 445 -1150 7 -8 754 1893 800 2037 16 50
37 127 47 173 l17 82 509 0 508 0 0 -79 0 -80 -47 -6 c-116 -15 -248 -47 -285
-67 -24 -14 -49 -39 -62 -63 l-21 -40 -3 -1198 c-2 -1165 -2 -1200 17 -1242
23 -52 83 -99 155 -120 44 -13 79 -20 214 -41 l32 -5 0 -79 0 -80 -685 0 -685
0 0 79 0 80 58 6 c257 27 281 34 343 92 84 79 79 -7 79 1290 0 964 -2 1143
-14 1143 -12 0 -394 -939 -933 -2293 l-138 -347 -59 2 -59 3 -501 1339 c-276
737 -507 1341 -514 1344 -10 3 -12 -197 -9 -1070 3 -976 5 -1080 20 -1148 24
-100 70 -192 114 -229 51 -42 191 -90 366 -126 27 -5 27 -6 27 -85 l0 -80
-630 0 -630 0 0 80 0 79 38 6 c305 49 383 94 431 250 38 121 42 274 39 1255
-3 933 -3 935 -25 992 -65 171 -159 232 -425 273 l-38 6 0 79 0 80 533 0 533
0 438 -1142z"/>
</g>
</svg>
